<svg width="474" height="93" viewBox="0 0 474 93" fill="none" xmlns="http://www.w3.org/2000/svg">
<g clip-path="url(#clip0_470_253)">
<path d="M0.0400027 0.0600586H2.87C36.2033 0.0600586 69.5367 0.0600586 102.87 0.0600586C106.045 0.208726 109.191 0.739167 112.24 1.64001C115.287 2.48836 118.121 3.96695 120.56 5.98004C123.9 8.50004 125.93 11.89 128.28 15.11C129.529 17.5608 130.341 20.2104 130.68 22.9401C131.61 29.9401 131.02 36.8001 126.84 42.9401C126.409 43.5459 125.913 44.1025 125.36 44.6C124.22 45.66 124.01 46.29 124.78 47.51C125.037 47.9312 125.339 48.3235 125.68 48.6801C129.29 52.4801 130.49 57.23 130.94 62.23C131.265 66.3995 130.835 70.5934 129.67 74.61C129.135 76.5961 128.169 78.4398 126.84 80.01C126.464 80.3396 126.129 80.7122 125.84 81.1201C124.09 84.4901 121.11 86.58 118.13 88.72C114.9 91.03 111.21 91.85 107.43 92.46C106.593 92.5883 105.747 92.6518 104.9 92.65H11.04C10.19 92.65 9.34 92.65 8.5 92.65C4.24 92.8 1.94 90.1601 0.330004 86.7401C-0.00473061 85.7327 -0.127303 84.667 -0.029997 83.61C-0.029997 71.32 0.060003 59.02 -0.029997 46.73C-0.0180833 45.3205 0.284715 43.9286 0.859438 42.6415C1.43416 41.3544 2.26843 40.1998 3.31 39.2501C4.22345 38.4701 5.34054 37.9671 6.53 37.8C8.12238 37.5032 9.74038 37.3658 11.36 37.39C40.7467 37.39 70.1367 37.39 99.53 37.39C100.8 37.39 102.08 37.29 103.35 37.39C107.18 37.69 109.62 35.39 111.56 32.67C112.32 31.5046 112.776 30.1679 112.888 28.7812C113 27.3946 112.763 26.0021 112.2 24.73C110.7 20.73 107.07 18.54 102.36 18.54H26.95C21.16 18.54 15.36 18.44 9.57 18.54C8.20319 18.5985 6.84194 18.3327 5.59752 17.7644C4.3531 17.1961 3.26083 16.3413 2.41 15.27C1.57305 14.42 0.926273 13.4018 0.512518 12.283C0.0987627 11.1641 -0.0725235 9.97009 0.0100039 8.78003C0.150004 5.98003 0.0400027 3.23006 0.0400027 0.0600586ZM18.47 74.1301H92.68C96.62 74.1301 100.56 74.1801 104.49 74.1301C105.496 74.0869 106.488 73.8843 107.43 73.53C111.43 71.8 112.88 68.53 112.78 64.35C112.7 60.59 110.57 58.24 107.54 56.53C105.54 55.41 103.3 55.61 101.12 55.61H58.31C45.81 55.61 33.3133 55.59 20.82 55.55C20.149 55.55 19.5055 55.8166 19.031 56.2911C18.5566 56.7655 18.29 57.409 18.29 58.08C18.29 62.66 18.29 67.2434 18.29 71.83C18.3 72.47 18.38 73.1601 18.47 74.1301Z" fill="#D02727"/>
<path d="M473.61 74.15C473.61 78.34 473.82 82.15 473.53 85.93C473.33 88.66 469.53 92.27 466.05 92.49C465.2 92.55 464.35 92.55 463.5 92.55C438.71 92.55 413.91 92.55 389.11 92.61C384.455 92.4772 379.818 91.9554 375.25 91.05C373.942 90.7549 372.687 90.259 371.53 89.58C368.4 87.98 365.31 86.3 362.22 84.58C361.962 84.4402 361.721 84.2725 361.5 84.08C359.633 82.4933 357.777 80.8967 355.93 79.29C355.363 78.8662 354.85 78.3761 354.4 77.83C351.26 73.34 347.84 69.08 345.87 63.83C344.328 60.0537 343.188 56.1254 342.47 52.11C341.917 48.0494 341.954 43.9301 342.58 39.88C343.46 33.88 346.08 28.49 348.58 23.05C348.833 22.5013 349.145 21.9816 349.51 21.5C350.96 19.5 352.15 17.3 353.87 15.6C356.6 12.6663 359.649 10.0467 362.96 7.79C364.39 6.9 365.89 6.13001 367.31 5.24001C370.92 2.99001 374.98 2.17001 379.04 1.24001C385.18 -0.159989 391.39 0.0199787 397.6 0.0199787H470.93H473.62C473.62 4.01998 473.62 7.77001 473.62 11.49C473.62 12.83 472.67 13.8 471.81 14.75C470.833 15.9453 469.595 16.9005 468.19 17.542C466.786 18.1834 465.253 18.494 463.71 18.45C439.05 18.33 414.39 18.45 389.71 18.38C385.71 18.38 381.94 19.5 378.13 20.52C375.9 21.219 373.852 22.4003 372.13 23.98C371 24.91 369.75 25.71 368.64 26.66C368.223 27.0388 367.847 27.4612 367.52 27.92C364.21 32.72 361.32 37.72 360.52 43.63C360.26 46.0174 360.381 48.4309 360.88 50.78C361.77 55.78 364.2 60.07 367.12 64.07C368.489 65.869 370.132 67.4416 371.99 68.73C374.89 70.8 377.91 72.81 381.54 73.45C383.332 73.8164 385.152 74.0305 386.98 74.09C414.46 74.13 441.943 74.13 469.43 74.09L473.61 74.15Z" fill="#D02727"/>
<path d="M141.75 92.5601C142.65 90.7801 143.32 89.3501 144.09 87.9901C146.09 84.4301 148.2 80.9101 150.25 77.3801C150.57 76.8301 150.82 76.2401 151.15 75.6901C154.15 70.7501 157.21 65.8601 160.15 60.8701C162.52 56.7901 164.68 52.58 167 48.47C168.32 46.14 169.81 43.9 171.17 41.59C171.99 40.2 172.68 38.72 173.5 37.32C174.5 35.56 175.62 33.83 176.69 32.1C176.992 31.7109 177.253 31.2921 177.47 30.85C178.88 26.85 181.47 23.5801 183.68 20.0501C185.173 16.7293 187.122 13.6328 189.47 10.85C190.469 9.52156 191.639 8.33123 192.95 7.31006C194.24 6.42006 195.59 5.60003 196.8 4.59003C198.8 2.93003 201.21 2.36004 203.56 1.73004C207.122 0.622116 210.83 0.0591026 214.56 0.0600598C219.091 0.322942 223.558 1.26336 227.81 2.85004C229.501 3.61828 231.071 4.62891 232.47 5.85004C234.264 6.98157 235.916 8.32452 237.39 9.85004C239.828 12.6907 241.938 15.797 243.68 19.11C245 21.67 246.61 24.1101 248.09 26.5601C248.71 27.5601 249.32 28.56 249.92 29.65C251.66 32.63 253.393 35.63 255.12 38.65C255.65 39.56 256.2 40.4601 256.72 41.3801C258.22 44.0201 259.72 46.66 261.19 49.29C261.722 49.933 262.117 50.6784 262.35 51.48C262.635 53.206 263.417 54.8114 264.6 56.1C267.1 59.02 268.69 62.52 270.53 65.86C270.6 65.98 270.66 66.11 270.74 66.23C273.16 70.37 275.58 74.5067 278 78.64C280.28 82.5267 282.573 86.4067 284.88 90.28C285.26 90.92 285.66 91.5501 286.21 92.4301C285.606 92.5572 284.995 92.644 284.38 92.6901C279.753 92.6901 275.117 92.6901 270.47 92.6901C269.577 92.6771 268.686 92.5834 267.81 92.41C265.47 91.75 263.47 90.85 262.47 88.33C261.93 86.94 260.47 85.91 260.1 84.42C258.96 80.07 257.1 75.88 253.86 72.82C251.61 70.74 250.55 67.9 249.07 65.33C246.22 60.39 243.31 55.47 240.48 50.52C237.33 45.01 234.24 39.52 231.12 33.96C230.88 33.53 230.6 33.12 230.34 32.7C229.377 31.2396 228.489 29.731 227.68 28.1801C226.292 24.835 223.829 22.048 220.68 20.26C215.27 17.42 210.04 18.2001 205.07 21.4301C204.336 21.9688 203.717 22.6488 203.25 23.4301C201.07 26.4795 199.067 29.6513 197.25 32.9301C195.25 36.8501 192.74 40.4 190.6 44.2C187.91 48.99 185.3 53.83 182.55 58.59C179.66 63.59 176.65 68.51 173.69 73.46C173.512 73.7828 173.355 74.1169 173.22 74.46C171.22 79.53 167.51 83.67 165.22 88.6C164 91.22 161.49 92.4001 158.66 92.5001C154.71 92.6301 150.75 92.5501 146.79 92.5601H141.75Z" fill="#D02727"/>
<path d="M305.1 92.48V87.0299C305.1 61.8899 305.1 36.7533 305.1 11.62C304.986 9.50338 305.281 7.38467 305.97 5.37998C306.255 4.51508 306.726 3.72316 307.35 3.05997C309.163 1.35051 311.506 0.313003 313.99 0.119969C316.88 -0.0700308 319.78 0.0499716 322.67 0.0599716C322.927 0.11547 323.175 0.202762 323.41 0.31992C323.41 0.96992 323.52 1.64992 323.52 2.31992C323.52 29.4266 323.52 56.5399 323.52 83.66C323.563 84.8562 323.362 86.0486 322.928 87.1645C322.495 88.2803 321.839 89.2961 321 90.1499C320.03 91.1917 318.75 91.893 317.35 92.1499C313.4 92.8499 309.39 92.48 305.1 92.48Z" fill="#D02727"/>
</g>
<defs>
<clipPath id="clip0_470_253">
<rect width="473.69" height="92.61" fill="white"/>
</clipPath>
</defs>
</svg>
